<svg width="40" height="21" viewBox="0 0 40 21" fill="none" xmlns="http://www.w3.org/2000/svg">
<rect y="0.5" width="40" height="20" rx="10" fill="#4F4F4F"/>
<g clip-path="url(#clip0_1_1307)">
<path d="M7.28666 10.5067C7.4615 10.4819 7.63901 10.5276 7.78025 10.6335C7.92148 10.7395 8.0149 10.8972 8.03999 11.072C8.12355 11.6512 8.33316 12.2051 8.65405 12.6945C8.97493 13.1839 9.39928 13.5969 9.89717 13.9045C10.3951 14.212 10.9544 14.4066 11.5356 14.4745C12.1169 14.5424 12.706 14.4819 13.2613 14.2973L13.4567 14.226L14.4627 15.232C13.974 15.4869 13.4486 15.6639 12.9053 15.7567L12.6667 15.792V16.5C12.6665 16.6699 12.6014 16.8334 12.4848 16.9569C12.3681 17.0805 12.2087 17.1548 12.0391 17.1648C11.8694 17.1747 11.7024 17.1196 11.5721 17.0105C11.4418 16.9014 11.3581 16.7467 11.338 16.578L11.3333 16.5V15.792C10.1746 15.6456 9.09598 15.1231 8.26277 14.3047C7.42957 13.4863 6.88784 12.4172 6.72066 11.2613C6.70822 11.1747 6.71297 11.0864 6.73465 11.0016C6.75633 10.9167 6.7945 10.837 6.847 10.7669C6.8995 10.6968 6.96529 10.6378 7.04061 10.5931C7.11594 10.5485 7.19998 10.5191 7.28666 10.5067ZM12 3.83334C12.859 3.83339 13.6848 4.16504 14.3052 4.75912C14.9256 5.3532 15.2927 6.16384 15.33 7.02201L15.3333 7.16668V10.5C15.3342 11.0951 15.1751 11.6795 14.8727 12.192L14.7813 12.3387L15.2607 12.818C15.622 12.3113 15.8673 11.7167 15.9593 11.072C15.9844 10.897 16.078 10.7391 16.2196 10.633C16.3611 10.527 16.539 10.4816 16.714 10.5067C16.889 10.5318 17.0469 10.6254 17.153 10.7669C17.259 10.9085 17.3044 11.0863 17.2793 11.2613C17.1585 12.1064 16.8356 12.9097 16.338 13.6033L16.2133 13.77L17.6567 15.214C17.7762 15.334 17.8456 15.495 17.8508 15.6643C17.856 15.8336 17.7965 15.9985 17.6845 16.1255C17.5725 16.2526 17.4163 16.3322 17.2477 16.3483C17.0791 16.3643 16.9107 16.3156 16.7767 16.212L16.714 16.1567L6.34333 5.78668C6.22376 5.6667 6.15435 5.50572 6.14918 5.33642C6.14401 5.16712 6.20347 5.0022 6.31549 4.87516C6.42752 4.74811 6.5837 4.66847 6.75231 4.65241C6.92093 4.63635 7.08933 4.68507 7.22333 4.78868L7.28599 4.84401L8.77266 6.33068C8.95811 5.61579 9.37564 4.9827 9.95973 4.53072C10.5438 4.07874 11.2614 3.83345 12 3.83334ZM8.66666 9.43601L12.932 13.7013C12.4352 13.846 11.9115 13.8731 11.4025 13.7803C10.8934 13.6875 10.4129 13.4775 9.99906 13.1669C9.58521 12.8563 9.24936 12.4536 9.0181 11.9907C8.78684 11.5278 8.66651 11.0175 8.66666 10.5V9.43601Z" fill="#F6F4F4"/>
</g>
<defs>
<clipPath id="clip0_1_1307">
<rect width="16" height="16" fill="white" transform="translate(4 2.5)"/>
</clipPath>
</defs>
</svg>
